# xmcd
#
# Track frame offsets: 
#        150
#        19458
#        51940
#        66063
#        87175
#        106290
#        124973
#        147620
#        176623
#        207803
#
# Disc length: 3081 seconds
#
# Revision: 3
# Processed by: cddbd v1.5.2PL0 Copyright (c) Steve Scherf et al.
# Submitted via: ExactAudioCopy v0.99pb4
#
DISCID=930c070a
DTITLE=Metallica - Kill 'em All
DYEAR=1983
DGENRE=Trash metal
TTITLE0=Hit The Lights
TTITLE1=The Four Horsemen
TTITLE2=Motorbreath
TTITLE3=Jump In The Fire
TTITLE4=(Anesthesia) - Pulling Teeth
TTITLE5=Whiplash
TTITLE6=Phantom Lord
TTITLE7=No Remorse
TTITLE8=Seek and Destroy
TTITLE9=Metal Militia
EXTD=Re-Release 1989
EXTT0=
EXTT1=
EXTT2=
EXTT3=
EXTT4=
EXTT5=
EXTT6=
EXTT7=
EXTT8=
EXTT9=
PLAYORDER=
